#!OML:ASF E:\acrobat2\Project_11_07_03\Capture day 1\Session 1\Acrobat.ASF
:FULLY-SPECIFIED
:DEGREES
415
root 7.89514 17.3522 -3.73453 129.928 52.0806 -34.6498
lowerback 0.102061 -4.16522 -2.3533
upperback -5.53718 -6.11591 -6.18595
thorax -6.29497 -3.09418 -4.81891
lowerneck 0.309163 -11.1203 0.248578
upperneck -35.5578 -15.8572 9.10189
head -10.7644 -8.30522 4.56895
rclavicle 1.19271e-014 5.40694e-014
rhumerus 75.9373 -43.034 -40.3293
rradius 41.0867
rwrist 26.2563
rhand -35.3444 -50.3542
rfingers 7.12502
rthumb -8.47717 -80.1641
lclavicle 1.19271e-014 5.40694e-014
lhumerus 79.4875 22.4803 47.8016
lradius 31.727
lwrist -6.15145
lhand -60.0359 -66.7963
lfingers 7.12502
lthumb -32.186 -39.6278
rfemur 20.7683 16.9992 2.25184
rtibia 4.05286
rfoot 2.66298 -46.6513
rtoes 40.1852
lfemur -21.3596 -29.6231 67.8347
ltibia -8.08911
lfoot -77.5396 7.29734
ltoes 55.3736
416
root 7.89143 17.3612 -3.40313 131.491 53.6636 -33.9582
lowerback -0.259638 -4.04373 -2.20841
upperback -5.80366 -5.94159 -5.99064
thorax -6.35021 -3.01497 -4.72288
lowerneck 0.13804 -11.2968 -0.370605
upperneck -35.1659 -16.0356 9.46141
head -10.4659 -8.35832 4.73052
rclavicle 5.1684e-014 -3.18055e-015
rhumerus 74.6112 -44.0753 -39.1314
rradius 40.8162
rwrist 25.7377
rhand -35.2214 -50.5416
rfingers 7.12502
rthumb -8.35846 -80.3562
lclavicle 5.1684e-014 -3.18055e-015
lhumerus 79.9221 22.5239 47.7867
lradius 31.4635
lwrist -6.9451
lhand -60.8925 -67.5424
lfingers 7.12502
lthumb -33.0011 -40.5424
rfemur 20.8506 18.2558 1.82724
rtibia 3.01344
rfoot -1.9228 -47.8311
rtoes 42.0397
lfemur -20.5132 -34.7803 67.315
ltibia -8.5286
lfoot -82.2701 6.47159
ltoes 55.1419
417
root 7.89152 17.3747 -3.07787 133.498 55.5499 -32.856
lowerback -0.656406 -4.1472 -1.72856
upperback -6.01458 -6.06219 -5.77681
thorax -6.38158 -3.10105 -4.7798
lowerneck -0.173511 -11.2336 0.903045
upperneck -35.2056 -15.9282 9.16528
head -10.5936 -8.42224 4.42882
rclavicle 1.65389e-013 6.67916e-014
rhumerus 73.7062 -45.0663 -38.757
rradius 40.4412
rwrist 24.9323
rhand -35.0705 -50.319
rfingers 7.12502
rthumb -8.21282 -80.1394
lclavicle 1.65389e-013 6.67916e-014
lhumerus 79.5299 23.1828 46.617
lradius 31.7336
lwrist -7.04709
lhand -60.953 -67.8647
lfingers 7.12502
lthumb -33.0586 -40.8768
rfemur 20.74 19.9417 1.95177
rtibia 2.13154
rfoot -7.43062 -48.8592
rtoes 43.8518
lfemur -19.3727 -38.1835 66.537
ltibia -8.90512
lfoot -85.622 5.64026
ltoes 54.9199
418
root 7.89174 17.3917 -2.75577 135.422 57.2956 -31.8049
lowerback -0.974525 -3.94424 -1.41791
upperback -6.38135 -5.7778 -5.38052
thorax -6.55306 -2.97467 -4.56223
lowerneck 0.0268748 -11.4764 -0.558549
upperneck -34.8775 -16.1787 9.86818
head -10.2603 -8.44466 4.85841
rclavicle -2.39337e-013 -6.20208e-014
rhumerus 74.3343 -45.2525 -39.217
rradius 39.2737
rwrist 25.8205
rhand -34.9815 -50.6001
rfingers 7.12502
rthumb -8.12694 -80.4238
lclavicle -2.39337e-013 -6.20208e-014
lhumerus 78.7783 23.4945 45.9527
lradius 32.2157
lwrist -6.45051
lhand -60.4843 -68.0344
lfingers 7.12502
lthumb -32.6127 -40.9533
rfemur 20.5594 21.4846 1.76535
rtibia 1.3544
rfoot -12.9061 -49.3671
rtoes 45.9077
lfemur -18.0887 -40.6936 65.1651
ltibia -9.21012
lfoot -88.2945 5.5532
ltoes 54.615
419
root 7.88727 17.4038 -2.43273 137.345 58.9283 -30.7703
lowerback -1.36721 -4.08598 -1.30783
upperback -6.59792 -5.9582 -5.07707
thorax -6.54871 -3.06657 -4.31576
lowerneck -0.627317 -11.3262 -1.1439
upperneck -34.2082 -15.7912 10.2036
head -9.81128 -8.24205 4.90875
rclavicle -2.17868e-013 -1.35174e-013
rhumerus 73.888 -45.8563 -38.7879
rradius 38.8162
rwrist 24.648
rhand -34.9102 -51.0972
rfingers 7.12502
rthumb -8.05811 -80.9236
lclavicle -2.17868e-013 -1.35174e-013
lhumerus 79.9718 24.1073 45.565
lradius 30.8708
lwrist -7.08158
lhand -60.2752 -68.3962
lfingers 7.12502
lthumb -32.4138 -41.2741
rfemur 20.3706 23.0921 1.4831
rtibia 0.599567
rfoot -17.9261 -49.6574
rtoes 47.8018
lfemur -16.7282 -42.3772 63.2661
ltibia -9.27308
lfoot -90.1792 5.12266
ltoes 54.3718
420
root 7.88128 17.4103 -2.11056 138.74 60.391 -30.2881
lowerback -1.77013 -4.21654 -1.48437
upperback -6.72777 -6.12597 -4.9498
thorax -6.43533 -3.13649 -4.103
lowerneck -1.55092 -11.1785 0.563691
upperneck -33.9299 -15.7461 9.03858
head -9.83812 -8.26368 4.18609
rclavicle -1.47498e-013 -6.44062e-014
rhumerus 75.5642 -45.9778 -40.9933
rradius 37.7944
rwrist 25.0113
rhand -34.6747 -51.1136
rfingers 7.12502
rthumb -7.83079 -80.9486
lclavicle -1.47498e-013 -6.44062e-014
lhumerus 80.8446 24.846 44.82
lradius 30.0026
lwrist -7.56365
lhand -60.3611 -68.9462
lfingers 7.12502
lthumb -32.4956 -41.8409
rfemur 20.2503 25.0497 0.878567
rtibia -0.181828
rfoot -24.8802 -49.381
rtoes 50.1008
lfemur -15.0713 -43.5612 60.5669
ltibia -9.20358
lfoot -91.3356 4.73891
ltoes 54.1248
